<svg width="3000" height="1000" viewBox="0 0 3000 1000" fill="none" xmlns="http://www.w3.org/2000/svg" role="img" aria-label="Akhil Senthil GitHub profile banner">
  <defs>
    <linearGradient id="bgGradient" x1="200" y1="80" x2="2800" y2="920" gradientUnits="userSpaceOnUse">
      <stop offset="0" stop-color="#070B1A"/>
      <stop offset="0.5" stop-color="#0E1330"/>
      <stop offset="1" stop-color="#090E22"/>
    </linearGradient>
    <radialGradient id="glowBlue" cx="0" cy="0" r="1" gradientUnits="userSpaceOnUse" gradientTransform="translate(550 260) rotate(38) scale(820 420)">
      <stop stop-color="#2F7DFF" stop-opacity="0.45"/>
      <stop offset="1" stop-color="#2F7DFF" stop-opacity="0"/>
    </radialGradient>
    <radialGradient id="glowPurple" cx="0" cy="0" r="1" gradientUnits="userSpaceOnUse" gradientTransform="translate(2390 700) rotate(-22) scale(900 460)">
      <stop stop-color="#7B4DFF" stop-opacity="0.42"/>
      <stop offset="1" stop-color="#7B4DFF" stop-opacity="0"/>
    </radialGradient>
    <radialGradient id="glowCyan" cx="0" cy="0" r="1" gradientUnits="userSpaceOnUse" gradientTransform="translate(1510 460) rotate(90) scale(680 1200)">
      <stop stop-color="#22D3EE" stop-opacity="0.16"/>
      <stop offset="1" stop-color="#22D3EE" stop-opacity="0"/>
    </radialGradient>
    <linearGradient id="lineGradient" x1="320" y1="140" x2="2700" y2="840" gradientUnits="userSpaceOnUse">
      <stop offset="0" stop-color="#22D3EE" stop-opacity="0.75"/>
      <stop offset="0.55" stop-color="#2F7DFF" stop-opacity="0.72"/>
      <stop offset="1" stop-color="#8B5CF6" stop-opacity="0.68"/>
    </linearGradient>
    <linearGradient id="chipGradient" x1="0" y1="0" x2="1" y2="1">
      <stop offset="0" stop-color="#22D3EE" stop-opacity="0.3"/>
      <stop offset="1" stop-color="#8B5CF6" stop-opacity="0.3"/>
    </linearGradient>
    <filter id="softBlur" x="-20%" y="-20%" width="140%" height="140%" color-interpolation-filters="sRGB">
      <feGaussianBlur stdDeviation="5"/>
    </filter>
  </defs>

  <rect width="3000" height="1000" fill="url(#bgGradient)"/>
  <rect width="3000" height="1000" fill="url(#glowBlue)"/>
  <rect width="3000" height="1000" fill="url(#glowPurple)"/>
  <rect width="3000" height="1000" fill="url(#glowCyan)"/>

  <!-- Subtle circuit grid -->
  <g opacity="0.2">
    <path d="M250 170H520V270H720" stroke="#4DA5FF" stroke-width="2"/>
    <path d="M470 120V170M470 270V330M720 270V330M250 170V120" stroke="#4DA5FF" stroke-width="2"/>
    <circle cx="250" cy="170" r="4" fill="#72E9FF"/>
    <circle cx="470" cy="170" r="4" fill="#72E9FF"/>
    <circle cx="520" cy="270" r="4" fill="#72E9FF"/>
    <circle cx="720" cy="270" r="4" fill="#72E9FF"/>
  </g>

  <g opacity="0.18">
    <path d="M2760 820H2510V710H2300" stroke="#9B7BFF" stroke-width="2"/>
    <path d="M2540 870V820M2540 710V650M2300 710V650M2760 820V870" stroke="#9B7BFF" stroke-width="2"/>
    <circle cx="2760" cy="820" r="4" fill="#B49CFF"/>
    <circle cx="2540" cy="820" r="4" fill="#B49CFF"/>
    <circle cx="2510" cy="710" r="4" fill="#B49CFF"/>
    <circle cx="2300" cy="710" r="4" fill="#B49CFF"/>
  </g>

  <!-- Neural network lines -->
  <g stroke="url(#lineGradient)" stroke-width="2.2" stroke-linecap="round" opacity="0.48">
    <path d="M230 660C470 520 680 760 930 620C1200 480 1420 720 1710 600C1990 485 2210 705 2510 570C2640 515 2760 560 2840 530"/>
    <path d="M180 420C420 300 640 510 900 390C1170 265 1390 500 1670 375C1940 255 2190 450 2490 350C2650 295 2760 330 2860 300"/>
    <path d="M240 250C470 170 700 320 940 260C1210 190 1420 330 1710 275C2000 220 2240 330 2540 290"/>
  </g>

  <g fill="#A4E8FF" opacity="0.78">
    <circle cx="230" cy="660" r="5"/>
    <circle cx="930" cy="620" r="5"/>
    <circle cx="1710" cy="600" r="5"/>
    <circle cx="2510" cy="570" r="5"/>
    <circle cx="180" cy="420" r="5"/>
    <circle cx="900" cy="390" r="5"/>
    <circle cx="1670" cy="375" r="5"/>
    <circle cx="2490" cy="350" r="5"/>
    <circle cx="240" cy="250" r="5"/>
    <circle cx="940" cy="260" r="5"/>
    <circle cx="1710" cy="275" r="5"/>
    <circle cx="2540" cy="290" r="5"/>
  </g>

  <!-- Code snippets -->
  <g opacity="0.34" font-family="'Consolas','JetBrains Mono','Fira Code','Courier New',monospace" font-size="29" fill="#7DE6FF">
    <text x="190" y="490">if (model.isReady) {'{'} deploy(); {'}'}</text>
    <text x="210" y="530">const features = preprocess(data);</text>
    <text x="235" y="570">train(features, labels);</text>
  </g>

  <g opacity="0.28" font-family="'Consolas','JetBrains Mono','Fira Code','Courier New',monospace" font-size="29" fill="#AFA3FF">
    <text x="2080" y="370">class Engineer {'{'} build() {'{'} ... {'}'} {'}'}</text>
    <text x="2140" y="410">async function optimize() {'{'} await run(); {'}'}</text>
    <text x="2200" y="450">// scalable, reliable, efficient</text>
  </g>

  <!-- Subtle cloud icons -->
  <g opacity="0.2" stroke="#7CEBFF" stroke-width="3" fill="none">
    <path d="M740 150C730 112 761 82 801 88C822 57 872 60 890 95C930 93 960 125 950 163C985 170 996 218 962 240H765C730 240 705 211 710 178C714 162 725 151 740 150Z"/>
    <path d="M2220 785C2211 753 2237 729 2269 733C2287 707 2327 710 2340 737C2372 736 2396 761 2390 793C2417 799 2425 837 2400 855H2236C2208 855 2190 832 2194 808C2197 795 2207 786 2220 785Z"/>
  </g>

  <!-- Center title block -->
  <g>
    <rect x="760" y="346" width="1480" height="310" rx="20" fill="#0A1027" fill-opacity="0.34" stroke="url(#lineGradient)" stroke-opacity="0.5"/>
    <rect x="760" y="346" width="1480" height="310" rx="20" fill="none" stroke="#66D9FF" stroke-opacity="0.15" filter="url(#softBlur)"/>

    <text x="1500" y="470" text-anchor="middle" fill="#EAF4FF" font-size="110" font-weight="700" font-family="'Segoe UI','Avenir Next','Helvetica Neue',sans-serif" letter-spacing="1">
      Akhil Senthil
    </text>
    <text x="1500" y="560" text-anchor="middle" fill="#A8C7FF" font-size="46" font-weight="500" font-family="'Segoe UI','Avenir Next','Helvetica Neue',sans-serif" letter-spacing="0.8">
      AI Enthusiast | Software Developer | CSE Undergraduate
    </text>
  </g>

  <!-- Frame -->
  <rect x="14" y="14" width="2972" height="972" rx="20" stroke="#66D9FF" stroke-opacity="0.16" stroke-width="2"/>
</svg>
